<svg width="12" height="12" viewBox="0 0 12 12" fill="none" xmlns="http://www.w3.org/2000/svg">
<circle cx="6" cy="6" r="5.5" stroke="white"/>
<path fill-rule="evenodd" clip-rule="evenodd" d="M4.76318 3.018C5.08309 3.00327 5.18509 3 6 3C6.81491 3 6.91691 3.00355 7.23655 3.018C7.55618 3.03245 7.77436 3.08345 7.96527 3.15736C8.16518 3.23291 8.34655 3.351 8.49655 3.50373C8.64927 3.65345 8.76709 3.83455 8.84236 4.03473C8.91655 4.22564 8.96727 4.44382 8.982 4.76291C8.99673 5.08336 9 5.18536 9 6C9 6.81491 8.99645 6.91691 8.982 7.23682C8.96755 7.55591 8.91655 7.77409 8.84236 7.965C8.76709 8.16521 8.64908 8.3466 8.49655 8.49655C8.34655 8.64927 8.16518 8.76709 7.96527 8.84236C7.77436 8.91655 7.55618 8.96727 7.23709 8.982C6.91691 8.99673 6.81491 9 6 9C5.18509 9 5.08309 8.99645 4.76318 8.982C4.44409 8.96755 4.22591 8.91655 4.035 8.84236C3.8348 8.76708 3.65341 8.64907 3.50345 8.49655C3.35083 8.34673 3.23272 8.16542 3.15736 7.96527C3.08345 7.77436 3.03273 7.55618 3.018 7.23709C3.00327 6.91664 3 6.81464 3 6C3 5.18509 3.00355 5.08309 3.018 4.76345C3.03245 4.44382 3.08345 4.22564 3.15736 4.03473C3.23283 3.83457 3.35103 3.65327 3.50373 3.50345C3.65347 3.35086 3.83467 3.23276 4.03473 3.15736C4.22564 3.08345 4.44382 3.03273 4.76291 3.018H4.76318ZM7.21227 3.558C6.89591 3.54355 6.801 3.54055 6 3.54055C5.199 3.54055 5.10409 3.54355 4.78773 3.558C4.49509 3.57136 4.33636 3.62018 4.23055 3.66136C4.09064 3.71591 3.99055 3.78055 3.88555 3.88555C3.78601 3.98238 3.70941 4.10026 3.66136 4.23055C3.62018 4.33636 3.57136 4.49509 3.558 4.78773C3.54355 5.10409 3.54055 5.199 3.54055 6C3.54055 6.801 3.54355 6.89591 3.558 7.21227C3.57136 7.50491 3.62018 7.66364 3.66136 7.76945C3.70936 7.89955 3.786 8.01764 3.88555 8.11445C3.98236 8.214 4.10045 8.29064 4.23055 8.33864C4.33636 8.37982 4.49509 8.42864 4.78773 8.442C5.10409 8.45645 5.19873 8.45945 6 8.45945C6.80127 8.45945 6.89591 8.45645 7.21227 8.442C7.50491 8.42864 7.66364 8.37982 7.76945 8.33864C7.90936 8.28409 8.00945 8.21945 8.11445 8.11445C8.214 8.01764 8.29064 7.89955 8.33864 7.76945C8.37982 7.66364 8.42864 7.50491 8.442 7.21227C8.45645 6.89591 8.45945 6.801 8.45945 6C8.45945 5.199 8.45645 5.10409 8.442 4.78773C8.42864 4.49509 8.37982 4.33636 8.33864 4.23055C8.28409 4.09064 8.21945 3.99055 8.11445 3.88555C8.01762 3.78602 7.89974 3.70942 7.76945 3.66136C7.66364 3.62018 7.50491 3.57136 7.21227 3.558ZM5.61682 6.92482C5.83082 7.0139 6.0691 7.02592 6.29098 6.95883C6.51286 6.89174 6.70456 6.7497 6.83335 6.55698C6.96213 6.36425 7.02002 6.13278 6.9971 5.90212C6.97419 5.67146 6.87191 5.4559 6.70773 5.29227C6.60306 5.18768 6.47651 5.10759 6.33718 5.05777C6.19785 5.00795 6.04921 4.98964 5.90195 5.00417C5.7547 5.01869 5.6125 5.06568 5.48558 5.14176C5.35867 5.21784 5.2502 5.32111 5.16799 5.44414C5.08578 5.56717 5.03187 5.7069 5.01014 5.85326C4.98841 5.99963 4.9994 6.14899 5.04233 6.2906C5.08525 6.4322 5.15904 6.56253 5.25838 6.6722C5.35772 6.78186 5.48013 6.86814 5.61682 6.92482ZM4.90964 4.90964C5.05282 4.76645 5.22281 4.65286 5.4099 4.57537C5.59698 4.49788 5.7975 4.45799 6 4.45799C6.2025 4.45799 6.40302 4.49788 6.5901 4.57537C6.77719 4.65286 6.94718 4.76645 7.09036 4.90964C7.23355 5.05282 7.34714 5.22281 7.42463 5.4099C7.50212 5.59698 7.54201 5.7975 7.54201 6C7.54201 6.2025 7.50212 6.40302 7.42463 6.5901C7.34714 6.77719 7.23355 6.94718 7.09036 7.09036C6.80118 7.37955 6.40897 7.54201 6 7.54201C5.59103 7.54201 5.19882 7.37955 4.90964 7.09036C4.62045 6.80118 4.45799 6.40897 4.45799 6C4.45799 5.59103 4.62045 5.19882 4.90964 4.90964ZM7.884 4.68764C7.91948 4.65416 7.94789 4.61391 7.96754 4.56927C7.98719 4.52462 7.99768 4.47648 7.99839 4.42771C7.9991 4.37893 7.99002 4.33051 7.97168 4.28531C7.95334 4.24011 7.92612 4.19905 7.89163 4.16456C7.85713 4.13006 7.81607 4.10284 7.77087 4.0845C7.72567 4.06617 7.67725 4.05708 7.62847 4.0578C7.5797 4.05851 7.53156 4.069 7.48692 4.08864C7.44227 4.10829 7.40202 4.1367 7.36855 4.17218C7.30345 4.24119 7.26781 4.33285 7.26919 4.42771C7.27057 4.52257 7.30887 4.61315 7.37595 4.68023C7.44303 4.74731 7.53362 4.78561 7.62847 4.78699C7.72333 4.78837 7.81499 4.75273 7.884 4.68764Z" fill="white"/>
</svg>
